<svg xmlns="http://www.w3.org/2000/svg" viewBox="0 0 1200 630" font-family="'Archivo Black', sans-serif">
  <rect width="1200" height="630" fill="#0d0d0d"/>
  <g stroke="#222" stroke-width="1">
    <path d="M0 60H1200M0 120H1200M0 180H1200M0 240H1200M0 300H1200M0 360H1200M0 420H1200M0 480H1200M0 540H1200M0 600H1200"/>
    <path d="M60 0V630M120 0V630M180 0V630M240 0V630M300 0V630M360 0V630M420 0V630M480 0V630M540 0V630M600 0V630M660 0V630M720 0V630M780 0V630M840 0V630M900 0V630M960 0V630M1020 0V630M1080 0V630M1140 0V630"/>
  </g>
  <ellipse cx="600" cy="0" rx="700" ry="320" fill="#ff6b00" opacity="0.12"/>
  <text x="80" y="300" font-size="150" letter-spacing="-6" fill="#f5f1e8">TEMP<tspan fill="#ff6b00">O</tspan></text>
  <text x="86" y="360" font-size="30" letter-spacing="6" fill="#8a8278" font-family="monospace">COULEUR EDF · TEMPS RÉEL</text>
  <g>
    <rect x="86" y="420" width="120" height="60" rx="6" fill="#3b82f6"/>
    <rect x="220" y="420" width="120" height="60" rx="6" fill="#d9d3c4"/>
    <rect x="354" y="420" width="120" height="60" rx="6" fill="#ef4444"/>
  </g>
  <text x="86" y="540" font-size="26" fill="#8a8278" font-family="monospace">Bleu · Blanc · Rouge — le prix du kWh, jour après jour.</text>
</svg>
